<svg xmlns="http://www.w3.org/2000/svg" width="177" height="58" viewBox="0 0 177 58" fill="none"><path d="M74.5373 32.1578C74.7292 30.757 75.7522 30.1516 77.3195 30.1516C78.3424 30.1516 79.2066 30.5334 79.2066 31.3931C79.2066 32.2209 78.9182 32.6994 77.8627 33.0493L74.2494 34.2925L74.5373 32.1583V32.1578ZM73.7376 38.2735V37.8918L78.1511 36.3948C81.1246 35.3752 82.7559 34.1645 82.7559 31.1063C82.7559 28.6211 80.8048 26.9358 77.6393 26.9358C73.8016 26.9358 71.2427 29.0353 70.8269 31.9023L70.0604 37.382C70.0011 37.8154 69.9689 38.252 69.9639 38.6894C69.9639 41.268 71.6586 42.8611 75.3364 42.8611H80.3956L80.8688 39.6062C80.8688 39.6062 77.8312 39.6123 75.8161 39.6123C74.4099 39.6123 73.7371 39.1662 73.7371 38.2735H73.7376ZM91.1202 20.9985H85.0374L84.5576 24.2473H86.8677L84.7346 39.6123H82.0737L81.594 42.8616H90.6768L91.1566 39.6128H88.5078L91.1202 20.9985ZM137.493 20.5629H133.719L133.144 24.6401H136.918L137.493 20.5629V20.5629ZM136.598 26.9341H130.489L130.009 30.1829H132.344L131.033 39.6128H128.378L127.899 42.8616H137.013L137.493 39.6128H134.807L136.598 26.9341H136.598ZM146.122 26.9341H146.115C142.502 26.9341 139.591 28.5585 139.591 31.7117C139.591 36.3316 145.955 35.7576 145.955 38.1148C145.955 39.4524 144.613 39.6112 143.462 39.6123C140.97 39.6112 138.655 39.6046 138.655 39.6046L138.192 42.8611C138.192 42.8611 140.398 42.8665 143.148 42.8665C147.37 42.8665 149.863 40.7582 149.863 37.6369C149.863 32.8906 143.467 33.3048 143.467 31.2651C143.467 30.5658 144.203 30.1516 145.801 30.1516C147.592 30.1516 150.081 30.1379 150.081 30.1379L150.55 26.9341H146.122V26.9341ZM112.943 26.9275H112.937C109.323 26.9275 106.413 28.5591 106.413 31.7139C106.413 36.3327 112.776 35.7598 112.776 38.117C112.776 39.4541 111.435 39.6112 110.284 39.6128C107.791 39.6117 105.477 39.6073 105.477 39.6073L105.006 42.8627C105.006 42.8627 107.219 42.8671 109.969 42.8671C114.191 42.8671 116.685 40.7609 116.685 37.6385C116.685 32.8917 110.289 33.3059 110.289 31.2673C110.289 30.5669 111.025 30.1516 112.622 30.1516C114.413 30.1516 116.902 30.1401 116.902 30.1401L117.372 26.9352C117.372 26.9352 115.403 26.9286 112.944 26.9275H112.943V26.9275ZM172.012 26.9341H172.006C168.392 26.9341 165.482 28.5585 165.482 31.7117C165.482 36.3316 171.846 35.7576 171.846 38.1148C171.846 39.4524 170.505 39.6112 169.353 39.6123C166.86 39.6112 164.546 39.6046 164.546 39.6046L164.068 42.8611C164.068 42.8611 166.289 42.8654 169.038 42.8654C173.261 42.8654 175.754 40.7582 175.754 37.6369C175.754 32.8906 169.358 33.3048 169.358 31.2651C169.358 30.5658 170.094 30.1516 171.691 30.1516C173.483 30.1516 175.972 30.1379 175.972 30.1379L176.441 26.9341H172.012V26.9341ZM162.16 26.9341L157.33 37.0002L155.347 26.9341H151.35L154.74 41.9382L151.383 48.5956H155.188L166.157 26.9336H162.159L162.16 26.9341ZM101.144 32.4764L100.378 37.828C100.218 38.9108 99.0344 39.6123 97.755 39.6123C96.572 39.6123 95.7404 39.0382 95.7404 38.0511C95.7404 37.6682 95.8038 37.2232 95.8684 36.7766L96.604 31.9666C96.7959 30.7564 97.9154 30.1516 99.1943 30.1516C100.346 30.1516 101.209 30.7564 101.209 31.7117C101.209 31.9666 101.177 32.1902 101.144 32.4764V32.4764ZM102.297 26.9336L101.977 28.1751C101.977 28.1751 100.889 26.927 98.7465 26.927C95.6445 26.927 93.2781 29.1002 92.8623 32.0935L92.0626 37.7006C92.0306 37.9868 91.9987 38.3054 91.9987 38.5608C91.9987 41.2048 93.8218 42.8611 96.5395 42.8611C98.8425 42.8611 100.09 41.5553 100.09 41.5553L100.026 42.8611H103.416L105.686 26.9336H102.297ZM123.424 38.752C123.424 38.529 123.488 38.0192 123.52 37.7962L124.606 30.1516H127.598L128.078 26.9336H125.087L125.566 23.4607H121.825L121.345 26.9336H118.435L117.955 30.1516H120.866L119.746 38.1466C119.682 38.6246 119.619 39.1662 119.619 39.4848C119.619 41.7789 120.961 42.8665 124.223 42.8665C126.654 42.8665 126.789 42.8611 126.789 42.8611L127.229 39.6123H125.279C123.776 39.6123 123.424 39.3574 123.424 38.752Z" fill="white"></path><path d="M0.441223 57.3986C1.36393 51.3438 5.66879 29.9056 20.5064 29.9056C21.3646 29.9056 22.266 29.9761 23.1783 30.1224C27.8596 31.1307 30.8156 34.3721 30.7058 38.3779C30.5315 44.8343 22.4627 53.583 0.441223 57.3986" fill="white"></path><path d="M22.3918 52.6718C29.8816 48.3191 33.0119 43.0503 33.1376 38.4429C33.2796 33.2121 29.5593 29.0166 23.6538 27.7536L23.5882 27.7427C22.5448 27.5801 21.5068 27.4934 20.5071 27.4934C12.5802 27.4934 7.36303 32.502 3.9541 38.5079C8.30813 28.2197 15.716 18.2731 28.0679 18.2731C29.3517 18.2731 30.6901 18.3815 32.0395 18.5929C39.1141 20.1161 43.5719 25.0271 43.4026 31.1143C43.2168 37.8737 37.2567 46.3243 22.3918 52.6718" fill="white"></path><path d="M62.1299 19.5513C61.8513 29.6877 52.7171 42.426 29.7888 51.7222C31.3124 50.866 32.7893 49.9306 34.2133 48.9198C41.5343 43.7106 45.6638 37.412 45.8337 31.1784C46.0359 23.8666 40.8078 17.9962 32.5204 16.2231L32.4548 16.2123C30.9634 15.9792 29.4884 15.8599 28.0674 15.8599C16.5574 15.8599 7.29759 23.6818 1.29865 38.4798C2.06401 36.0948 2.93755 33.6447 3.9269 31.2055C12.1651 10.8893 24.1619 0.584865 39.5895 0.584865C41.4688 0.584865 43.4191 0.742603 45.3907 1.05103C55.8092 3.28971 62.3812 10.5483 62.1299 19.5513" fill="white"></path></svg>